# xmcd CD database file
#
# Track frame offsets:
#	150
#	20434
#	54347
#	70081
#	82976
#	98722
#	131086
#	172163
#
# Disc length: 2523 seconds
#
# Revision: 1
# Processed by: cddbd v1.5.2PL0 Copyright (c) Steve Scherf et al.
# Submitted via: CDex 1.81
#
DISCID=6209d908
DTITLE=Junko Akimoto, Nobuo Hara, Sharps and Flats - Swingin'
DYEAR=2010
DGENRE=Jazz
TTITLE0=It Don't Mean A Thing
TTITLE1=Shiny Stockings
TTITLE2=Sentimental Journey
TTITLE3=Tennessee Waltz
TTITLE4=On The Sunny Side Of The Street
TTITLE5=Summertime
TTITLE6=Sing Sing Sing
TTITLE7=Makkana Taiyou
EXTD=YEAR: 2010
EXTT0=
EXTT1=
EXTT2=
EXTT3=
EXTT4=
EXTT5=
EXTT6=
EXTT7=
PLAYORDER=
